<svg width="20" height="56" viewBox="0 0 20 56" fill="none" xmlns="http://www.w3.org/2000/svg" class="scale-x-[-1]"><g clip-path="url(#clip0_12660_15854)"><path d="M8.12059 8.47C17.7106 23.24 14.9806 43.89 0.350588 55.02C0.0705872 55.3 -0.0694122 55.65 0.0705891 55.86C0.210588 56.07 0.630587 56.07 0.910587 55.79C7.85238 50.2961 12.4344 42.3589 13.7206 33.6C15.0506 24.78 13.0906 15.82 8.12059 8.47ZM7.35059 50.05C9.38059 51.8 13.4406 50.33 15.4706 46.27C13.0206 45.08 9.73059 46.97 7.35059 50.05ZM5.18059 40.88C3.85059 43.61 3.85059 47.04 5.88059 48.86C8.26059 45.78 7.56059 42 5.18059 40.88ZM11.1306 43.96C13.4406 45.36 17.0806 43.12 18.2706 38.78C15.6806 38.15 12.8806 40.6 11.1306 43.96ZM7.14059 35.56C6.37059 38.5 7.07059 41.86 9.45059 43.12H9.52059C11.2006 39.69 9.73059 36.19 7.14059 35.56ZM13.5806 37.45C16.1706 38.29 19.2506 35.42 19.6006 30.94C16.9406 30.8 14.6306 33.81 13.5806 37.45ZM8.05059 30.03C7.84059 33.04 9.24059 36.12 11.8306 36.96V36.89C12.8106 33.25 10.7806 30.17 8.05059 30.03ZM19.3906 22.96C16.7306 23.45 15.0506 26.81 14.7706 30.52C17.4306 30.87 19.9506 27.44 19.3906 22.96ZM7.91059 24.43C8.33059 27.44 10.2206 30.1 12.8806 30.45L12.9506 30.38C13.1606 26.67 10.5706 24.01 7.91059 24.43ZM6.72059 18.97C7.63059 21.84 10.0806 24.08 12.7406 23.8C12.3206 20.09 9.24059 17.99 6.72059 18.97ZM17.7106 15.19C15.2606 16.17 14.2106 19.74 14.5606 23.38L14.6306 23.59H14.7006C17.2906 23.24 19.0406 19.6 17.7806 15.4L17.7106 15.19ZM4.48059 13.72C6.02059 16.38 8.75059 18.13 11.3406 17.36C10.2206 13.79 6.79059 12.25 4.48059 13.72ZM14.4906 7.84C12.2506 9.31 11.9706 13.16 13.0906 16.8C15.6806 16.03 16.8006 11.83 14.4906 7.84ZM1.19059 8.96C3.29059 11.34 6.37059 12.53 8.75059 11.27C6.86059 7.91 3.08059 7.07 1.19059 8.96ZM9.87059 1.12C7.91059 3.08 8.47059 7 10.3606 10.29C12.6706 9.03 12.9506 4.69 9.87059 1.12ZM0.0705891 0C1.33059 3.29 3.99059 5.88 7.21059 7.14C7.21059 3.78 3.57059 0.07 0.0705891 0Z" fill="#D1D5DA"/></g><defs><clipPath id="clip0_12660_15854"><rect width="19.6" height="56" fill="white" transform="matrix(-1 0 0 1 19.6006 0)"/></clipPath></defs></svg>