<svg width="24" height="24" viewBox="0 0 24 25" fill="currentColor" xmlns="http://www.w3.org/2000/svg"><path d="M21 7.76629V17.0603C21.0001 17.1674 20.9714 17.2726 20.9171 17.3649C20.8627 17.4572 20.7847 17.5333 20.691 17.5853L12.291 22.2513C12.202 22.3007 12.1018 22.3266 12 22.3266C11.8982 22.3266 11.798 22.3007 11.709 22.2513L3.309 17.5853C3.21532 17.5333 3.13725 17.4572 3.08292 17.3649C3.02858 17.2726 2.99995 17.1674 3 17.0603V7.76629C3.00013 7.65934 3.02884 7.55436 3.08317 7.46223C3.1375 7.3701 3.21547 7.29416 3.309 7.24229L11.709 2.57529C11.798 2.52591 11.8982 2.5 12 2.5C12.1018 2.5 12.202 2.52591 12.291 2.57529L20.691 7.24229C20.7845 7.29416 20.8625 7.3701 20.9168 7.46223C20.9712 7.55436 20.9999 7.65934 21 7.76629Z" stroke="#212121" stroke-width="1.5" stroke-linecap="round" stroke-linejoin="round"/><path d="M3.52832 7.70728L11.7083 12.2513C11.7975 12.3008 11.8978 12.3269 11.9998 12.3269C12.1018 12.3269 12.2022 12.3008 12.2913 12.2513L20.5003 7.69128M12.0003 21.4133V12.4133" stroke="#212121" stroke-width="1.5" stroke-linecap="round" stroke-linejoin="round"/><path d="M11.691 12.2423L3.891 7.9083C3.79964 7.85763 3.69663 7.8317 3.59217 7.83306C3.48771 7.83442 3.38541 7.86304 3.29541 7.91607C3.2054 7.96911 3.1308 8.04472 3.07899 8.13544C3.02718 8.22616 2.99995 8.32883 3 8.4333V17.0603C2.99995 17.1674 3.02858 17.2726 3.08292 17.3649C3.13725 17.4573 3.21532 17.5333 3.309 17.5853L11.109 21.9183C11.2004 21.969 11.3034 21.9949 11.4078 21.9935C11.5123 21.9922 11.6146 21.9636 11.7046 21.9105C11.7946 21.8575 11.8692 21.7819 11.921 21.6912C11.9728 21.6004 12.0001 21.4978 12 21.3933V12.7663C11.9999 12.6593 11.9712 12.5544 11.9168 12.4622C11.8625 12.3701 11.7845 12.2942 11.691 12.2423Z" stroke="#212121" stroke-width="1.5" stroke-linejoin="round"/></svg>